<svg width="200" height="26" viewBox="0 0 200 26" fill="none" xmlns="http://www.w3.org/2000/svg">
<path d="M4.58102 25.0528C2.9406 24.6383 1.38862 23.9306 0 22.9638L2.02402 18.6078C3.22859 19.4424 4.5577 20.081 5.96201 20.4998C7.43772 20.969 8.97652 21.2098 10.525 21.2138C11.8187 21.2995 13.1123 21.0472 14.279 20.4818C14.6408 20.3005 14.9455 20.0229 15.1597 19.6795C15.3739 19.3362 15.4892 18.9404 15.493 18.5358C15.4967 18.2501 15.4337 17.9675 15.3091 17.7105C15.1844 17.4534 15.0016 17.2289 14.775 17.0548C14.2271 16.6259 13.6027 16.3049 12.935 16.1088C12.1863 15.8708 11.1744 15.6088 9.89902 15.3228C8.26686 14.9652 6.65708 14.5121 5.078 13.9658C3.83865 13.522 2.73118 12.7729 1.858 11.7878C0.921304 10.6719 0.441529 9.24289 0.515015 7.78781C0.501818 6.37857 0.925954 4.99992 1.729 3.84181C2.65392 2.57467 3.92575 1.60224 5.39102 1.04182C7.29551 0.301834 9.32858 -0.0503973 11.371 0.00580751C12.995 0.00367242 14.6135 0.19536 16.192 0.576807C17.6422 0.909744 19.0325 1.4639 20.314 2.21981L18.474 6.6108C16.3009 5.35774 13.8433 4.68163 11.335 4.64681C10.0524 4.55695 8.77033 4.82929 7.63501 5.43281C7.27003 5.64142 6.96674 5.94289 6.75598 6.30663C6.54522 6.67037 6.43448 7.08342 6.435 7.50381C6.43708 7.92645 6.57123 8.33789 6.81866 8.68054C7.0661 9.02318 7.41446 9.2799 7.815 9.4148C9.17533 9.96422 10.587 10.3769 12.029 10.6468C13.6626 11.0044 15.274 11.4568 16.855 12.0018C18.0875 12.442 19.1931 13.1779 20.075 14.1448C21.0148 15.2445 21.496 16.6633 21.419 18.1078C21.4278 19.5081 20.9965 20.8759 20.186 22.0178C19.2459 23.2859 17.9618 24.2577 16.486 24.8178C14.5743 25.5567 12.5349 25.9089 10.486 25.8538C8.4902 25.86 6.50309 25.5904 4.58102 25.0528Z" fill="white"/>
<path d="M48.6831 16.3717C47.0931 14.7917 46.2981 12.535 46.2981 9.6017V0.345703H50.9251V9.43069C50.9251 13.0107 52.4104 14.8007 55.3811 14.8007C55.995 14.8414 56.6103 14.746 57.183 14.5213C57.7557 14.2966 58.2717 13.9481 58.6941 13.5007C59.5514 12.3253 59.9571 10.8806 59.8371 9.43069V0.345703H64.4071V9.6017C64.4071 12.535 63.6121 14.7917 62.0221 16.3717C60.1374 17.9053 57.7819 18.7425 55.3521 18.7425C52.9223 18.7425 50.5678 17.9053 48.6831 16.3717Z" fill="white"/>
<path d="M93.1931 1.23186C94.4208 1.7585 95.468 2.63227 96.2061 3.74585C96.8981 4.91082 97.2634 6.24081 97.2634 7.59585C97.2634 8.9509 96.8981 10.2809 96.2061 11.4458C95.4736 12.5644 94.4247 13.4396 93.1931 13.9599C91.7333 14.5711 90.1612 14.8679 88.579 14.8309H84.552V18.4019H79.925V0.345854H88.575C90.1599 0.308535 91.7345 0.610626 93.1931 1.23186ZM91.493 10.1579C91.8583 9.8437 92.1461 9.44958 92.3343 9.00612C92.5225 8.56265 92.6058 8.08177 92.578 7.60084C92.6076 7.1156 92.5252 6.63007 92.337 6.18181C92.1489 5.73355 91.8601 5.3346 91.493 5.01585C90.573 4.35585 89.4516 4.03756 88.322 4.11586H84.552V11.0569H88.322C89.4517 11.136 90.5735 10.8184 91.494 10.1589L91.493 10.1579Z" fill="white"/>
<path d="M124.652 1.23172C125.88 1.75822 126.927 2.63202 127.665 3.74572C128.357 4.91065 128.723 6.24066 128.723 7.59572C128.723 8.95078 128.357 10.2808 127.665 11.4457C126.933 12.5644 125.884 13.4396 124.652 13.9597C123.193 14.5709 121.621 14.8677 120.039 14.8307H116.012V18.4017H111.384V0.345722H120.04C121.623 0.30926 123.195 0.611335 124.652 1.23172ZM122.952 10.1577C123.317 9.84357 123.605 9.44945 123.793 9.00599C123.981 8.56252 124.065 8.08164 124.037 7.60071C124.067 7.11547 123.984 6.62993 123.796 6.18167C123.608 5.73341 123.319 5.33446 122.952 5.01572C122.032 4.35572 120.911 4.03743 119.781 4.11573H116.011V11.0567H119.781C120.911 11.1358 122.032 10.8182 122.953 10.1587L122.952 10.1577Z" fill="white"/>
<path d="M142.855 0.345703H147.482V14.6287H157.508V18.3987H142.855V0.345703Z" fill="white"/>
<path d="M200 20.7777V25.4147H180.057V0.450684H199.524V5.08768H185.979V10.5087H197.939V15.0037H185.979V20.7827L200 20.7777Z" fill="white"/>
<path d="M157.962 24.9829H45.866V26.0039H157.962V24.9829Z" fill="white"/>
</svg>
